/* XPM */
static char *_d89af071b2fff021cbc4755f7cde540[] = {
/* columns rows colors chars-per-pixel */
"75 75 2 1 ",
"  c None",
". c black",
/* pixels */
"                                                                           ",
"                                                                           ",
"                                                                           ",
"                                                                           ",
"                                                                           ",
"                                                                           ",
"                                                                           ",
"                                 ........                                  ",
"                               ............                                ",
"                              ..............                               ",
"                             ................                              ",
"                             ................                              ",
"                            ..................                             ",
"                            ..................                             ",
"                            ..................                             ",
"                            ........... .......                            ",
"                            ...  ....     .....                            ",
"                            ..    ...  .  .....                            ",
"                            ..... ..  ... .....                            ",
"                            ..... ... ... .....                            ",
"                            .. ..     ... .....                            ",
"                            ....       ........                            ",
"                            ..            .....                            ",
"                            ..            ......                           ",
"                             ..         . ......                           ",
"                             ...     .    ......                           ",
"                             .......   .. ......                           ",
"                            .. .     ..   .......                          ",
"                            .. .......     ......                          ",
"                           ...  ....        ......                         ",
"                           ..               .......                        ",
"                          ..                 .......                       ",
"                         ...                 .......                       ",
"                        ....                 ........                      ",
"                        ....                 .........                     ",
"                       .....                  ... .....                    ",
"                      .....                    ... ....                    ",
"                      .....                    ... .....                   ",
"                      ....                     .... ....                   ",
"                     .....                      ... ....                   ",
"                     ....                       ... .....                  ",
"                     ....                       .........                  ",
"                    .....                       .........                  ",
"                    .....                       ..........                 ",
"                   .....                        ..........                 ",
"                   .....                        ..........                 ",
"                  .... .                         .. ......                 ",
"                  .... .                          ........                 ",
"                  .....                         ..........                 ",
"                      ..                       ...........                 ",
"                       ..                     . ........                   ",
"                        ..                       .......                   ",
"                 .      ...                       .....                    ",
"             ....        ....                             .                ",
"            .             ....                .           .                ",
"                          .....               .           ..               ",
"            .              ....               .            ..              ",
"            .               ...             . .              .             ",
"            .               ..              . .               .            ",
"            .                .             .. .               .            ",
"            .                . ..        .... .              .             ",
"           .                  . ............. .            ..              ",
"           .                  . ............ ..         ...                ",
"            ...               . ............ ..        ..                  ",
"               ....           .................      ..                    ",
"                   ....      ..              ...    ..                     ",
"                       .......                .......                      ",
"                          ..                   ....                        ",
"                                                                           ",
"                                                                           ",
"                                                                           ",
"                                                                           ",
"                                                                           ",
"                                                                           ",
"                                                                           "
};
