/* XPM */
static char *_9de85e356a8dd6c350f0d5db0935bdd[] = {
/* columns rows colors chars-per-pixel */
"50 50 2 1 ",
"  c None",
". c white",
/* pixels */
"                                                  ",
"                                                  ",
"                                                  ",
"                                                  ",
"                        .                         ",
"                     .......                      ",
"                    .........                     ",
"                   ...........                    ",
"                   ............                   ",
"                   ............                   ",
"                   ......  ....                   ",
"                   .  ..    ...                   ",
"                   ... . .. ...                   ",
"                   ...   .. ...                   ",
"                   ..      ....                   ",
"                   .        ....                  ",
"                   ..       ....                  ",
"                   .....  . ....                  ",
"                   . .  ..  .....                 ",
"                  .. ...     ....                 ",
"                  .          .....                ",
"                 ..           .....               ",
"                ...           ......              ",
"               ....            .....              ",
"               ...             ......             ",
"               ..               .....             ",
"              ...               ......            ",
"              ...               ......            ",
"             ...                ......            ",
"             ...                .......           ",
"            ....                .......           ",
"            ....                 . ....           ",
"              .                 .......           ",
"               ..               ......            ",
"                ..               ....             ",
"          .      ..               ..              ",
"                 ...                              ",
"                  ...                  .          ",
"        .          ..        .           .        ",
"        .          .         ..                   ",
"        .           ..     ....                   ",
"                    ...........       ..          ",
"        ...         ...........     ..            ",
"            ...    ..         ..   .              ",
"                ....           ....               ",
"                                                  ",
"                                                  ",
"                                                  ",
"                                                  ",
"                                                  "
};
