/* XPM */
static char *db2aaf2ec20328cdf0ee3e0798784ab7[] = {
/* columns rows colors chars-per-pixel */
"129 129 2 1 ",
"  c None",
". c black",
/* pixels */
"                                                                                                                                 ",
"                                                                                                                                 ",
"                                                                                                                                 ",
"                                                                                                                                 ",
"                                                                                                                                 ",
"                                                                                                                                 ",
"                                                                                                                                 ",
"                                                                                                                                 ",
"                                                                                                                                 ",
"                                                                                                                                 ",
"                                                                                                                                 ",
"                                                                                                                                 ",
"                                                         ............                                                            ",
"                                                       .................                                                         ",
"                                                      ....................                                                       ",
"                                                     ......................                                                      ",
"                                                    ........................                                                     ",
"                                                   ..........................                                                    ",
"                                                   ..........................                                                    ",
"                                                  ............................                                                   ",
"                                                  .............................                                                  ",
"                                                 ..............................                                                  ",
"                                                 ...............................                                                 ",
"                                                 ...............................                                                 ",
"                                                 ...............................                                                 ",
"                                                 ................................                                                ",
"                                                 ................................                                                ",
"                                                 .....  .........      ..........                                                ",
"                                                 ....    .......        .........                                                ",
"                                                 ...      ......         ........                                                ",
"                                                 ...  .   .....    ..    ........                                                ",
"                                                 ... .... .....   .....  ........                                                ",
"                                                 ... .. .  ....  .... .   .......                                                ",
"                                                 ... .. .  ....  ......  ........                                                ",
"                                                 ... ....  ....  ......   .......                                                ",
"                                                 ... ....        ......  ........                                                ",
"                                                 .... ..          .....  ........                                                ",
"                                                 ......              .............                                               ",
"                                                 ....                  ...........                                               ",
"                                                 ...                     .........                                               ",
"                                                 ...                     .........                                               ",
"                                                 ...                  .  .........                                               ",
"                                                 ....                ..  ..........                                              ",
"                                                 .....            ..     ..........                                              ",
"                                                  .....        ...       ..........                                              ",
"                                                  .............     ...  ...........                                             ",
"                                                  ...... ...      ....   ...........                                             ",
"                                                 ... ...        ....     ............                                            ",
"                                                 ...  ...     ....        ...........                                            ",
"                                                ....  ...........         ............                                           ",
"                                                ...    ........            ...........                                           ",
"                                               ....     ......              ...........                                          ",
"                                              ....       ...                ............                                         ",
"                                              ....                           ...........                                         ",
"                                             ....                            ............                                        ",
"                                            .....                            .............                                       ",
"                                           ......                             .............                                      ",
"                                           .....                              ..............                                     ",
"                                          ......                              ...............                                    ",
"                                         .......                               ..... ........                                    ",
"                                        .........                              ...... ........                                   ",
"                                        .........                               .....  ........                                  ",
"                                       .........                                 ..... ........                                  ",
"                                       ........                                  ...... ........                                 ",
"                                      ........                                    ..... ........                                 ",
"                                      ........                                    ...... ........                                ",
"                                      .......                                     ...... ........                                ",
"                                     ........                                     ......  .......                                ",
"                                     .......                                       ...... ........                               ",
"                                    ........                                       ...... ........                               ",
"                                    ........                                       ...... ........                               ",
"                                    .......                                        ...... .........                              ",
"                                   ........                                        ....... ........                              ",
"                                   ........                                         ...... ........                              ",
"                                  ........                                          ...... .........                             ",
"                                  ... ....                                          ...... .........                             ",
"                                 .... ....                                          ...... .........                             ",
"                                 .... ....                                          ...... .........                             ",
"                                ..... ....                                          ..... ..........                             ",
"                                ...... ...                                          ..... ..........                             ",
"                                ...... ...                                          ....  ...........                            ",
"                                ...... ...                                                  .........                            ",
"                                ....... ..                                           ....... .......                             ",
"                                .......                                             ................                             ",
"                                .   ....                                            ................                             ",
"                                      ...                                          .................                             ",
"                                       ...                                      ...................                              ",
"                                        ...                                     .   ..............                               ",
"                                        .....                                  ..   .............                                ",
"                              .          .....                                 .     ...........                                 ",
"                             ..           .....                                .      .........     .                            ",
"                            ..             .....                               .      ........      .                            ",
"                        ......             .......                             .        ....        .                            ",
"                     .......                .......                            .                    ..                           ",
"                    ..                       .......                           ..                   ..                           ",
"                    .                        ........                          ..                    ..                          ",
"                    .                         ........                         ..                    ...                         ",
"                     .                         .......                          .                     ...                        ",
"                     .                         .......                          .                      ...                       ",
"                     ..                         ......                       .  .                        ...                     ",
"                     ..                          ....                       ..  .                          ..                    ",
"                     ..                          ..                        ...  .                           .                    ",
"                     ..                           .                       ....  .                           .                    ",
"                     ..                           ..                     ..... ..                           .                    ",
"                    ..                             .. ..               ....... ..                         ..                     ",
"                    ..                             .. ....          .......... ..                       ...                      ",
"                    ..                              .. ......................  ..                     ...                        ",
"                    .                               ..  .....................  ..                  ....                          ",
"                    ..                              ..  .....................  ..                ....                            ",
"                    ....                            ..  ..................... ...              ....                              ",
"                     .......                        ... ..................... ...             ....                               ",
"                         ........                   .............................            ...                                 ",
"                              .......              ......                    .....         ....                                  ",
"                                  ......          ....                        .....       ....                                   ",
"                                     .......    ....                           ...... ......                                     ",
"                                        ...........                             ...........                                      ",
"                                           ......                                .........                                       ",
"                                                                                                                                 ",
"                                                                                                                                 ",
"                                                                                                                                 ",
"                                                                                                                                 ",
"                                                                                                                                 ",
"                                                                                                                                 ",
"                                                                                                                                 ",
"                                                                                                                                 ",
"                                                                                                                                 ",
"                                                                                                                                 ",
"                                                                                                                                 ",
"                                                                                                                                 "
};
