/* XPM */
static char *_b2893da44f8fcaa0b88006f231c258c[] = {
/* columns rows colors chars-per-pixel */
"104 104 2 1 ",
"  c None",
". c black",
/* pixels */
"                                                                                                        ",
"                                                                                                        ",
"                                                                                                        ",
"                                                                                                        ",
"                                                                                                        ",
"                                                                                                        ",
"                                                                                                        ",
"                                                                                                        ",
"                                                                                                        ",
"                                                .....                                                   ",
"                                             ............                                               ",
"                                           ................                                             ",
"                                          ..................                                            ",
"                                         ....................                                           ",
"                                         .....................                                          ",
"                                        .......................                                         ",
"                                        .......................                                         ",
"                                       .........................                                        ",
"                                       .........................                                        ",
"                                       .........................                                        ",
"                                       ..........................                                       ",
"                                       ...............  .........                                       ",
"                                       ....   ......     ........                                       ",
"                                       ...    .....       .......                                       ",
"                                       ... ..  ....  ...  .......                                       ",
"                                       .. ...  ....  .. .  ......                                       ",
"                                       .. .. . .... .....  ......                                       ",
"                                       .. .... .... .....  ......                                       ",
"                                       ... ..       .....  ......                                       ",
"                                       ... .          ... .......                                       ",
"                                       ....             .........                                       ",
"                                       ...                ........                                      ",
"                                       ..                  .......                                      ",
"                                        ..              .  .......                                      ",
"                                        ...           ..  ........                                      ",
"                                        ....       ..     .........                                     ",
"                                        ...........    .. .........                                     ",
"                                        .....        ..   ..........                                    ",
"                                       ... ..      ...     .........                                    ",
"                                       ..   ........        .........                                   ",
"                                      ...   .......         .........                                   ",
"                                     ....    ....            .........                                  ",
"                                     ...                     ..........                                 ",
"                                    ....                      .........                                 ",
"                                   ....                       ..........                                ",
"                                   ....                       ...........                               ",
"                                  .....                        ...........                              ",
"                                 ......                        ............                             ",
"                                .......                         .... ......                             ",
"                                .......                         ............                            ",
"                               .......                           .... ......                            ",
"                               ......                            ..... ......                           ",
"                              .......                             .... ......                           ",
"                              ......                              ..... ......                          ",
"                              ......                              ..... ......                          ",
"                             ......                               ..... ......                          ",
"                             ......                                .... .......                         ",
"                             ......                                ............                         ",
"                            ......                                 ..... ......                         ",
"                            .. ...                                 ..... .......                        ",
"                           ... ...                                 ..... .......                        ",
"                           ... ...                                 ..... .......                        ",
"                          .... ...                                 ..... .......                        ",
"                          .... ...                                 .... ........                        ",
"                          .... ...                                  ... ........                        ",
"                         ...... ..                                   .    ......                        ",
"                         ......                                     ............                        ",
"                          . ....                                   .............                        ",
"                              ...                                 ..............                        ",
"                               ...                              ...............                         ",
"                                ...                             .  ...........                          ",
"                        .        ...                           .    .........                           ",
"                        .         ....                         .     .......    .                       ",
"                      ..          .....                        .     ......     .                       ",
"                 ......            .....                       .                .                       ",
"                ..                  .....                      ..               ..                      ",
"                .                   .......                     .                .                      ",
"                .                    ......                     .                ..                     ",
"                 .                    .....                     .                 ...                   ",
"                 .                    .....                     .                   ..                  ",
"                 .                     ....                  .. .                     .                 ",
"                 ..                     .                   ... .                      .                ",
"                 .                      .                  .... .                     .                 ",
"                ..                       . ..            ...... .                    ..                 ",
"                ..                       .. ...       ........ ..                  ...                  ",
"                .                        .. .................. ..                ...                    ",
"                .                         .  ................. ..             ....                      ",
"                ..                        .. ................  ..            ...                        ",
"                 ......                   .. ....................          ...                          ",
"                     ......              ........................         ...                           ",
"                          .....          ...                  ....       ..                             ",
"                             .....     ...                     ....   ....                              ",
"                                .........                       .........                               ",
"                                   ....                          .......                                ",
"                                                                                                        ",
"                                                                                                        ",
"                                                                                                        ",
"                                                                                                        ",
"                                                                                                        ",
"                                                                                                        ",
"                                                                                                        ",
"                                                                                                        ",
"                                                                                                        ",
"                                                                                                        "
};
